<?xml version="1.0" encoding="UTF-8" standalone="no"?> <svg xmlns="http://www.w3.org/2000/svg" width="200.000000pt" height="200.000000pt" viewBox="0 0 200.000000 200.000000" preserveAspectRatio="xMidYMid meet"> <metadata> Created by potrace 1.16, written by Peter Selinger 2001-2019 </metadata> <g transform="translate(0.000000,200.000000) scale(0.100000,-0.100000)" fill="#1A1E25" stroke="none"> <path d="M0 1000 l0 -1000 1000 0 1000 0 0 1000 0 1000 -1000 0 -1000 0 0 -1000z m472 280 c195 -57 262 -313 123 -468 -71 -78 -121 -96 -292 -100 l-143 -4 0 290 0 291 38 4 c59 8 233 -1 274 -13z m698 -16 c211 -119 194 -438 -29 -537 -25 -11 -75 -22 -112 -25 -180 -13 -316 100 -327 272 -5 84 7 134 47 198 58 91 144 130 276 125 80 -2 98 -7 145 -33z m320 -158 c0 -193 4 -221 41 -255 28 -26 104 -29 136 -6 35 24 43 77 43 268 l0 177 65 0 65 0 0 -208 c0 -208 0 -209 -27 -263 -45 -87 -124 -126 -238 -116 -70 5 -132 33 -168 77 -47 55 -57 114 -57 322 l0 188 70 0 70 0 0 -184z"></path> <path d="M290 1006 c0 -191 -3 -185 88 -167 98 19 145 73 145 165 0 101 -55 154 -169 164 l-64 5 0 -167z"></path> <path d="M953 1169 c-65 -19 -113 -93 -113 -174 0 -45 40 -116 79 -142 47 -32 135 -32 181 0 50 33 72 77 72 146 0 87 -30 135 -105 166 -40 17 -66 18 -114 4z"></path> </g> </svg> 